<svg width="1920" height="740" viewBox="0 0 1920 740" fill="none" xmlns="http://www.w3.org/2000/svg">
<path d="M377 621C307.4 598.6 157.5 599.5 83.5 612L0.5 625L0 3.5H1919V406C1906.5 440 1778.09 514.784 1651 529C1503.5 545.5 1464 493 1330.5 481.5C1216.5 471.68 1244.5 527.5 1065.5 558.5C886.5 589.5 836 555.5 723 629.5C610 703.5 464 649 377 621Z" fill="url(#paint0_linear_1346_311)" fill-opacity="0.3"/>
<path d="M370 615.5C300.4 593.1 221 623.588 192.5 630.5C190.818 631.154 189.132 631.785 187.443 632.392C96.7142 664.997 -4 630.5 -4 630.5L-2 0H1921V397L1919.83 397.763C1814.73 466.179 1777.62 490.336 1651 504.5C1503.5 521 1483.5 491.5 1350 480C1236 470.18 1230.5 533.5 1051.5 564.5C872.5 595.5 836 533.5 723 607.5C610 681.5 457 643.5 370 615.5Z" fill="url(#paint1_linear_1346_311)"/>
<g opacity="0.7">
<path d="M1435.24 425.22L1458.77 447.616C1458.89 447.741 1458.89 447.928 1458.77 448.115C1458.65 448.24 1458.47 448.24 1458.29 448.178L1434.03 426.655C1433.67 426.343 1433.61 425.719 1433.97 425.345C1434.33 424.908 1434.87 424.908 1435.24 425.22Z" fill="url(#paint2_linear_1346_311)" fill-opacity="0.7"/>
<path d="M1444.02 433.829L1458.41 447.554C1458.47 447.616 1458.47 447.741 1458.41 447.866C1458.35 447.928 1458.23 447.928 1458.11 447.866L1443.24 434.703C1443 434.515 1443 434.141 1443.18 433.892C1443.42 433.642 1443.78 433.58 1444.02 433.829Z" fill="url(#paint3_linear_1346_311)" fill-opacity="0.7"/>
</g>
<g opacity="0.35">
<path opacity="0.35" d="M1532.64 252.214L1555.6 274.114C1555.7 274.214 1555.7 274.414 1555.6 274.614C1555.5 274.714 1555.31 274.714 1555.12 274.614L1531.48 253.614C1531.09 253.314 1531.09 252.714 1531.38 252.314C1531.77 251.914 1532.25 251.914 1532.64 252.214Z" fill="url(#paint4_linear_1346_311)"/>
<path opacity="0.35" d="M1541.22 260.614L1555.31 274.014C1555.41 274.114 1555.41 274.214 1555.31 274.314C1555.21 274.414 1555.12 274.414 1555.02 274.314L1540.55 261.414C1540.35 261.214 1540.26 260.914 1540.45 260.614C1540.64 260.414 1541.03 260.414 1541.22 260.614Z" fill="url(#paint5_linear_1346_311)"/>
</g>
<path d="M1324.23 66.2139L1347.2 88.1138C1347.29 88.2138 1347.29 88.4138 1347.2 88.6138C1347.1 88.7138 1346.91 88.7138 1346.71 88.6138L1323.08 67.6138C1322.69 67.3138 1322.69 66.7138 1322.98 66.3138C1323.37 65.9138 1323.85 65.9139 1324.23 66.2139Z" fill="url(#paint6_linear_1346_311)"/>
<path d="M1332.82 74.6139L1346.91 88.0139C1347 88.1139 1347 88.2139 1346.91 88.3139C1346.81 88.4139 1346.71 88.4139 1346.62 88.3139L1332.15 75.4139C1331.95 75.2139 1331.86 74.9139 1332.05 74.6139C1332.24 74.4139 1332.63 74.3139 1332.82 74.6139Z" fill="url(#paint7_linear_1346_311)"/>
<path d="M498.88 310.292L530.254 340.214C530.386 340.351 530.386 340.624 530.254 340.898C530.122 341.034 529.859 341.034 529.595 340.898L497.298 312.205C496.771 311.795 496.771 310.975 497.166 310.429C497.693 309.882 498.353 309.882 498.88 310.292Z" fill="url(#paint8_linear_1346_311)" fill-opacity="0.2"/>
<path d="M510.612 321.769L529.859 340.078C529.991 340.214 529.991 340.351 529.859 340.488C529.727 340.624 529.595 340.624 529.463 340.488L509.69 322.862C509.426 322.589 509.294 322.179 509.558 321.769C509.821 321.496 510.349 321.359 510.612 321.769Z" fill="url(#paint9_linear_1346_311)" fill-opacity="0.3"/>
<path d="M424.588 100.292L455.963 130.214C456.095 130.351 456.095 130.624 455.963 130.898C455.831 131.034 455.567 131.034 455.304 130.898L423.007 102.205C422.479 101.795 422.479 100.975 422.875 100.429C423.402 99.8823 424.061 99.8823 424.588 100.292Z" fill="url(#paint10_linear_1346_311)" fill-opacity="0.5"/>
<path d="M436.321 111.769L455.567 130.078C455.699 130.214 455.699 130.351 455.567 130.488C455.435 130.624 455.304 130.624 455.172 130.488L435.398 112.862C435.134 112.589 435.003 112.179 435.266 111.769C435.53 111.496 436.057 111.359 436.321 111.769Z" fill="url(#paint11_linear_1346_311)" fill-opacity="0.5"/>
<path d="M1044.44 59.2139L1067.4 81.1138C1067.49 81.2138 1067.49 81.4138 1067.4 81.6138C1067.3 81.7138 1067.11 81.7138 1066.92 81.6138L1043.28 60.6138C1042.89 60.3138 1042.89 59.7138 1043.18 59.3138C1043.57 58.9138 1044.05 58.9139 1044.44 59.2139Z" fill="url(#paint12_linear_1346_311)"/>
<path d="M823.49 411.214L846.453 433.114C846.55 433.214 846.55 433.414 846.453 433.614C846.357 433.714 846.164 433.714 845.971 433.614L822.333 412.614C821.947 412.314 821.947 411.714 822.236 411.314C822.622 410.914 823.104 410.914 823.49 411.214Z" fill="url(#paint13_linear_1346_311)"/>
<path d="M756.334 124.189L770.42 137.589C770.517 137.689 770.517 137.789 770.42 137.889C770.324 137.989 770.228 137.989 770.131 137.889L755.659 124.989C755.466 124.789 755.369 124.489 755.562 124.189C755.755 123.989 756.141 123.889 756.334 124.189Z" fill="url(#paint14_linear_1346_311)"/>
<path d="M1330.34 5.386L1332.01 7.4651L1334.28 8.24359L1332.43 9.94132L1331.55 12.4845L1330.04 10.3764L1327.59 9.46184L1329.62 7.90019L1330.34 5.386Z" fill="#FEA7AF" fill-opacity="0.5"/>
<path d="M1328.3 138.766L1329.34 140.107L1330.92 140.671L1329.62 141.758L1329.08 143.388L1328.03 142.048L1326.46 141.483L1327.75 140.397L1328.3 138.766Z" fill="#FEA7AF" fill-opacity="0.6"/>
<path d="M1129.26 386.199L1130.28 387.375L1131.85 387.939L1130.56 389.026L1130.02 390.657L1128.97 389.316L1127.39 388.752L1128.69 387.665L1129.26 386.199Z" fill="#FEA7AF" fill-opacity="0.4"/>
<path d="M1020.88 474.978L1021.74 476.183L1023.32 476.747L1022.02 477.834L1021.64 479.436L1020.59 478.095L1019.01 477.531L1020.31 476.444L1020.88 474.978Z" fill="#FEA7AF" fill-opacity="0.5"/>
<path opacity="0.29" d="M990.434 74.902L991.482 76.2427L993.056 76.8071L991.762 77.8936L991.218 79.5243L990.169 78.1836L988.596 77.6193L989.889 76.5328L990.434 74.902Z" fill="white"/>
<path opacity="0.29" d="M959.749 397.522L960.769 398.698L962.343 399.262L961.049 400.349L960.504 401.98L959.456 400.639L957.883 400.075L959.176 398.988L959.749 397.522Z" fill="white"/>
<path opacity="0.29" d="M931.893 175.42L932.913 176.595L934.487 177.16L933.193 178.246L932.649 179.877L931.6 178.536L930.027 177.972L931.32 176.886L931.893 175.42Z" fill="white"/>
<path opacity="0.29" d="M1128.17 108.2L1129.22 109.541L1130.64 110.134L1129.5 111.191L1128.96 112.822L1127.91 111.481L1126.34 110.917L1127.63 109.831L1128.17 108.2Z" fill="white"/>
<path opacity="0.29" d="M1074.96 509.804L1077.03 512.32L1080.02 513.478L1077.59 515.622L1076.47 518.718L1074.4 516.202L1071.42 515.044L1073.84 512.9L1074.96 509.804Z" fill="#FEA7AF"/>
<path opacity="0.29" d="M930.242 55.9129L932.18 58.6233L935.326 59.7521L932.711 61.7599L931.782 64.9924L929.685 62.311L926.566 61.3474L929.153 59.1745L930.242 55.9129Z" fill="white"/>
<path opacity="0.29" d="M1564.75 69.0122L1566.84 71.6937L1569.8 72.6863L1567.38 74.8302L1566.29 78.0917L1564.19 75.4103L1561.2 74.2526L1563.66 72.2738L1564.75 69.0122Z" fill="white"/>
<path opacity="0.29" d="M1589.08 289.04L1591.01 291.751L1594.13 292.714L1591.55 294.887L1590.62 298.12L1588.52 295.438L1585.37 294.31L1587.99 292.302L1589.08 289.04Z" fill="white"/>
<path opacity="0.29" d="M987.377 341.609L988.238 342.814L989.811 343.378L988.49 344.3L988.104 345.901L987.056 344.561L985.67 344.132L986.804 343.075L987.377 341.609Z" fill="white"/>
<path opacity="0.29" d="M1543.63 410.239L1544.67 411.58L1546.06 412.008L1544.93 413.066L1544.35 414.531L1543.49 413.327L1541.92 412.762L1543.24 411.841L1543.63 410.239Z" fill="#FEA7AF"/>
<path opacity="0.29" d="M1442.51 63.7045L1443.56 65.0452L1444.95 65.4735L1443.81 66.5309L1443.24 67.9966L1442.38 66.792L1440.81 66.2276L1442.13 65.3062L1442.51 63.7045Z" fill="#FEA7AF"/>
<path opacity="0.29" d="M1548.52 180.538L1549.54 181.714L1550.95 182.307L1549.79 183.2L1549.25 184.83L1548.36 183.461L1546.81 183.061L1548.11 181.975L1548.52 180.538Z" fill="white"/>
<path opacity="0.29" d="M1466.1 4.27355L1466.96 5.47819L1468.53 6.04254L1467.21 6.96391L1466.82 8.56566L1465.78 7.22496L1464.39 6.7967L1465.52 5.73924L1466.1 4.27355Z" fill="white"/>
<path opacity="0.29" d="M1138.62 235.243L1140.31 237.487L1142.92 238.373L1140.79 240.294L1139.93 243.002L1138.08 240.787L1135.44 239.736L1137.6 237.981L1138.62 235.243Z" fill="#FEA7AF"/>
<path d="M1193.43 298.98L1195.93 302.098L1199.61 303.47L1196.57 305.895L1195.25 309.71L1192.91 306.562L1189.26 305.355L1192.26 302.765L1193.43 298.98Z" fill="white" fill-opacity="0.5"/>
<path d="M1481.35 248.247L1482.21 249.452L1483.44 249.909L1482.44 250.772L1481.99 252.044L1481.16 251.004L1479.93 250.547L1480.94 249.684L1481.35 248.247Z" fill="white" fill-opacity="0.5"/>
<path d="M1183.97 28.9969L1184.83 30.2016L1186.06 30.6588L1185.05 31.5222L1184.61 32.7938L1183.78 31.7542L1182.39 31.326L1183.56 30.4336L1183.97 28.9969Z" fill="white" fill-opacity="0.6"/>
<path opacity="0.33" d="M1042.27 193.772L1043.75 195.715L1046.21 196.629L1044.17 198.191L1043.42 200.54L1041.94 198.597L1039.68 197.819L1041.52 196.121L1042.27 193.772Z" fill="#FEA7AF"/>
<path opacity="0.33" d="M1409.91 266.533L1410.96 267.873L1412.72 268.574L1411.27 269.689L1410.72 271.32L1409.67 269.979L1407.94 269.444L1409.37 268.163L1409.91 266.533Z" fill="#FEA7AF"/>
<path opacity="0.33" d="M1456.73 307.357L1457.8 308.863L1459.38 309.427L1458.08 310.514L1457.57 312.309L1456.33 310.833L1454.76 310.268L1456.05 309.182L1456.73 307.357Z" fill="#FEA7AF"/>
<path opacity="0.33" d="M1425.99 137.219L1427.07 138.725L1428.8 139.26L1427.35 140.376L1426.83 142.171L1425.76 140.666L1424.18 140.101L1425.48 139.015L1425.99 137.219Z" fill="#FEA7AF"/>
<path opacity="0.33" d="M1300.89 191.941L1301.96 193.447L1303.69 193.982L1302.24 195.098L1301.73 196.894L1300.65 195.388L1299.08 194.824L1300.37 193.737L1300.89 191.941Z" fill="#FEA7AF"/>
<path d="M702.549 406.603L700.284 407.942L699.151 410.12L697.859 407.941L695.595 406.598L697.86 405.427L699.155 403.081L700.286 405.428L702.549 406.603Z" fill="#FEA7AF" fill-opacity="0.5"/>
<path d="M730.499 514.789L729.043 515.627L728.233 517.135L727.426 515.626L725.971 514.787L727.427 513.949L728.236 512.441L729.044 513.95L730.499 514.789Z" fill="#FEA7AF" fill-opacity="0.4"/>
<path d="M488.722 206.684L487.428 207.353L486.619 208.861L485.811 207.352L484.356 206.681L485.812 205.844L486.621 204.336L487.429 205.845L488.722 206.684Z" fill="#FEA7AF" fill-opacity="0.7"/>
<path opacity="0.29" d="M746.038 147.344L744.582 148.181L743.772 149.689L742.965 148.18L741.51 147.341L742.966 146.504L743.775 144.996L744.583 146.505L746.038 147.344Z" fill="white"/>
<path opacity="0.29" d="M716.489 71.4005L715.195 72.2377L714.385 73.7457L713.578 72.2367L712.123 71.3978L713.578 70.5606L714.388 69.0526L715.196 70.5616L716.489 71.4005Z" fill="white"/>
<path opacity="0.29" d="M860.915 521.498L859.459 522.336L858.65 523.676L857.842 522.335L856.387 521.496L857.843 520.658L858.653 519.15L859.46 520.659L860.915 521.498Z" fill="white"/>
<path opacity="0.29" d="M618.502 334.312L615.752 335.987L614.133 338.835L612.518 335.984L609.77 334.307L612.52 332.632L614.139 329.784L615.754 332.634L618.502 334.312Z" fill="#FEA7AF"/>
<path opacity="0.29" d="M557.988 127.992L555.076 129.499L553.457 132.515L552.004 129.497L549.094 127.987L552.006 126.313L553.463 123.296L555.078 126.314L557.988 127.992Z" fill="white"/>
<path opacity="0.29" d="M651.905 734.576L648.993 736.25L647.536 739.099L645.921 736.249L643.011 734.571L645.923 732.896L647.541 730.048L648.995 732.898L651.905 734.576Z" fill="white"/>
<path opacity="0.29" d="M438.617 721.202L435.705 722.709L434.248 725.725L432.633 722.707L429.723 721.197L432.634 719.522L434.253 716.506L435.707 719.524L438.617 721.202Z" fill="white"/>
<path opacity="0.29" d="M358.734 190.353L357.44 191.022L356.631 192.53L355.985 191.021L354.529 190.35L355.985 189.513L356.633 188.172L357.441 189.514L358.734 190.353Z" fill="white"/>
<path opacity="0.29" d="M509.617 425.925L508.323 426.595L507.514 428.103L506.868 426.594L505.413 425.922L506.869 425.085L507.516 423.745L508.324 425.086L509.617 425.925Z" fill="#FEA7AF"/>
<path opacity="0.29" d="M344.253 353.41L342.797 354.247L342.15 355.588L341.342 354.246L340.049 353.408L341.343 352.738L342.152 351.23L342.798 352.739L344.253 353.41Z" fill="#FEA7AF"/>
<path opacity="0.29" d="M678.174 610.732L676.718 611.569L676.07 612.91L675.263 611.568L673.969 610.729L675.264 610.06L676.073 608.552L676.719 610.061L678.174 610.732Z" fill="#FEA7AF"/>
<path opacity="0.29" d="M548.755 698.644L547.461 699.482L546.652 700.822L546.005 699.481L544.551 698.642L546.006 697.972L546.654 696.464L547.462 697.973L548.755 698.644Z" fill="white"/>
<path opacity="0.29" d="M730.548 645.123L729.254 645.793L728.444 647.301L727.799 645.792L726.343 645.121L727.799 644.284L728.447 642.943L729.255 644.284L730.548 645.123Z" fill="white"/>
<path opacity="0.29" d="M632.657 464.216L630.23 465.555L628.935 468.069L627.481 465.554L625.056 464.211L627.483 462.704L628.94 460.191L630.232 462.706L632.657 464.216Z" fill="#FEA7AF"/>
<path d="M496.084 618.328L494.79 618.997L494.142 620.17L493.496 618.996L492.364 618.325L493.497 617.656L494.144 616.483L494.791 617.656L496.084 618.328Z" fill="white"/>
<path d="M626.887 653.606L625.593 654.276L624.945 655.449L624.299 654.275L623.168 653.604L624.3 652.934L624.948 651.594L625.594 652.935L626.887 653.606Z" fill="white" fill-opacity="0.6"/>
<path opacity="0.33" d="M624.089 179.616L621.986 180.788L620.691 183.134L619.561 180.787L617.459 179.612L619.562 178.44L620.695 176.262L621.988 178.442L624.089 179.616Z" fill="#FEA7AF"/>
<path opacity="0.33" d="M351.763 533.193L350.307 534.03L349.336 535.706L348.528 534.029L347.073 533.19L348.529 532.353L349.338 530.677L350.308 532.354L351.763 533.193Z" fill="#FEA7AF"/>
<path opacity="0.33" d="M444.195 582.93L442.578 583.767L441.768 585.275L440.961 583.766L439.344 582.927L440.962 581.923L441.771 580.415L442.579 581.924L444.195 582.93Z" fill="#FEA7AF"/>
<path opacity="0.33" d="M616.42 578.01L614.802 578.847L613.992 580.523L613.185 578.846L611.568 578.007L613.186 577.17L613.995 575.662L614.803 577.171L616.42 578.01Z" fill="#FEA7AF"/>
<path opacity="0.33" d="M580.921 443.903L579.303 444.74L578.494 446.416L577.686 444.739L576.07 443.9L577.687 443.063L578.497 441.555L579.304 443.064L580.921 443.903Z" fill="#FEA7AF"/>
<path opacity="0.33" d="M946.903 628.89L945.447 629.727L944.638 631.235L943.669 629.726L942.214 628.887L943.67 627.882L944.641 626.374L945.448 627.883L946.903 628.89Z" fill="#FEA7AF"/>
<circle cx="462" cy="500" r="36" fill="#8E40A1" fill-opacity="0.4"/>
<circle cx="1301.5" cy="390.5" r="23.5" fill="#8E40A1" fill-opacity="0.2"/>
<circle cx="691" cy="78.9988" r="28" fill="#8E40A2" fill-opacity="0.3"/>
<circle cx="1594.5" cy="362.5" r="23.5" fill="#8E40A2" fill-opacity="0.28"/>
<path d="M1369 335.5C1369 340.194 1365.19 344 1360.5 344C1355.81 344 1352 340.194 1352 335.5C1352 330.806 1355.81 327 1360.5 327C1365.19 327 1369 330.806 1369 335.5Z" fill="#8E40A2" fill-opacity="0.4"/>
<path d="M383 496.499C383 501.745 378.747 505.999 373.5 505.999C368.253 505.999 364 501.745 364 496.499C364 491.252 368.253 486.999 373.5 486.999C378.747 486.999 383 491.252 383 496.499Z" fill="#8E40A1" fill-opacity="0.2"/>
<path d="M347 125.499C347 130.745 342.747 134.999 337.5 134.999C332.253 134.999 328 130.745 328 125.499C328 120.252 332.253 115.999 337.5 115.999C342.747 115.999 347 120.252 347 125.499Z" fill="#8E40A1" fill-opacity="0.8"/>
<path d="M1555 69.4988C1555 74.7455 1550.75 78.9988 1545.5 78.9988C1540.25 78.9988 1536 74.7455 1536 69.4988C1536 64.2521 1540.25 59.9988 1545.5 59.9988C1550.75 59.9988 1555 64.2521 1555 69.4988Z" fill="#8E40A1" fill-opacity="0.3"/>
<path d="M456 49C456 56.732 449.732 63 442 63C434.268 63 428 56.732 428 49C428 41.268 434.268 35 442 35C449.732 35 456 41.268 456 49Z" fill="#8E40A1" fill-opacity="0.3"/>
<defs>
<linearGradient id="paint0_linear_1346_311" x1="2076.01" y1="-306.99" x2="886.008" y2="603.014" gradientUnits="userSpaceOnUse">
<stop stop-color="#AA3E87"/>
<stop offset="0.0001" stop-color="#3B2F4E"/>
<stop offset="1" stop-color="#763187"/>
</linearGradient>
<linearGradient id="paint1_linear_1346_311" x1="2076" y1="-328.988" x2="886.003" y2="581.016" gradientUnits="userSpaceOnUse">
<stop stop-color="#AA3E87"/>
<stop offset="0.0001" stop-color="#3B2F4E"/>
<stop offset="1" stop-color="#763187"/>
</linearGradient>
<linearGradient id="paint2_linear_1346_311" x1="1458.74" y1="448.111" x2="1433.2" y2="426.217" gradientUnits="userSpaceOnUse">
<stop offset="0.00537634" stop-color="#FEA7AF"/>
<stop offset="0.9946" stop-color="#EA47AC" stop-opacity="0"/>
</linearGradient>
<linearGradient id="paint3_linear_1346_311" x1="1458.43" y1="447.817" x2="1442.77" y2="434.401" gradientUnits="userSpaceOnUse">
<stop offset="0.00537634" stop-color="#FEA7AF"/>
<stop offset="0.9946" stop-color="#EA47AC" stop-opacity="0"/>
</linearGradient>
<linearGradient id="paint4_linear_1346_311" x1="1555.61" y1="274.584" x2="1530.66" y2="253.205" gradientUnits="userSpaceOnUse">
<stop offset="0.00537634" stop-color="#FEA7AF"/>
<stop offset="0.9946" stop-color="#EA47AC" stop-opacity="0"/>
</linearGradient>
<linearGradient id="paint5_linear_1346_311" x1="1555.3" y1="274.297" x2="1540.01" y2="261.196" gradientUnits="userSpaceOnUse">
<stop offset="0.00537634" stop-color="#FEA7AF"/>
<stop offset="0.9946" stop-color="#EA47AC" stop-opacity="0"/>
</linearGradient>
<linearGradient id="paint6_linear_1346_311" x1="1347.19" y1="88.5356" x2="1322.24" y2="67.1562" gradientUnits="userSpaceOnUse">
<stop offset="0.00537634" stop-color="#FEA7AF"/>
<stop offset="0.9946" stop-color="#EA47AC" stop-opacity="0"/>
</linearGradient>
<linearGradient id="paint7_linear_1346_311" x1="1346.88" y1="88.2486" x2="1331.59" y2="75.1473" gradientUnits="userSpaceOnUse">
<stop offset="0.00537634" stop-color="#FEA7AF"/>
<stop offset="0.9946" stop-color="#EA47AC" stop-opacity="0"/>
</linearGradient>
<linearGradient id="paint8_linear_1346_311" x1="530.241" y1="340.791" x2="496.159" y2="311.58" gradientUnits="userSpaceOnUse">
<stop offset="0.00537634" stop-color="#FEA7AF"/>
<stop offset="0.9946" stop-color="#EA47AC" stop-opacity="0"/>
</linearGradient>
<linearGradient id="paint9_linear_1346_311" x1="529.816" y1="340.398" x2="508.93" y2="322.498" gradientUnits="userSpaceOnUse">
<stop offset="0.00537634" stop-color="#FEA7AF"/>
<stop offset="0.9946" stop-color="#EA47AC" stop-opacity="0"/>
</linearGradient>
<linearGradient id="paint10_linear_1346_311" x1="455.95" y1="130.791" x2="421.867" y2="101.58" gradientUnits="userSpaceOnUse">
<stop offset="0.00537634" stop-color="#FEA7AF"/>
<stop offset="0.9946" stop-color="#EA47AC" stop-opacity="0"/>
</linearGradient>
<linearGradient id="paint11_linear_1346_311" x1="455.524" y1="130.398" x2="434.639" y2="112.498" gradientUnits="userSpaceOnUse">
<stop offset="0.00537634" stop-color="#FEA7AF"/>
<stop offset="0.9946" stop-color="#EA47AC" stop-opacity="0"/>
</linearGradient>
<linearGradient id="paint12_linear_1346_311" x1="1067.39" y1="81.5356" x2="1042.44" y2="60.1562" gradientUnits="userSpaceOnUse">
<stop offset="0.00537634" stop-color="#FEA7AF"/>
<stop offset="0.9946" stop-color="#EA47AC" stop-opacity="0"/>
</linearGradient>
<linearGradient id="paint13_linear_1346_311" x1="846.444" y1="433.536" x2="821.499" y2="412.156" gradientUnits="userSpaceOnUse">
<stop offset="0.00537634" stop-color="#FEA7AF"/>
<stop offset="0.9946" stop-color="#EA47AC" stop-opacity="0"/>
</linearGradient>
<linearGradient id="paint14_linear_1346_311" x1="770.389" y1="137.824" x2="755.103" y2="124.723" gradientUnits="userSpaceOnUse">
<stop offset="0.00537634" stop-color="#FEA7AF"/>
<stop offset="0.9946" stop-color="#EA47AC" stop-opacity="0"/>
</linearGradient>
</defs>
</svg>
