<svg width="78" height="78" viewBox="0 0 78 78" fill="none" xmlns="http://www.w3.org/2000/svg">
<circle cx="39" cy="39" r="39" fill="#FCAA0B"/>
<g clip-path="url(#clip0_1393_903)">
<path d="M53.0714 25C51.9321 25 51 25.9321 51 27.0714C51 27.2786 51 27.3821 51.1036 27.5893L44.2679 34.425C44.0607 34.3214 43.9571 34.3214 43.75 34.3214C43.5429 34.3214 43.3357 34.3214 43.1286 34.425L35.4643 27.4857C35.4643 27.3821 35.4643 27.175 35.4643 27.0714C35.4643 25.9321 34.5321 25 33.3929 25C32.2536 25 31.3214 25.9321 31.3214 27.0714L25.1071 30.4893C24.7964 30.2821 24.4857 30.1786 24.0714 30.1786C22.9321 30.1786 22 31.1107 22 32.25C22 33.3893 22.9321 34.3214 24.0714 34.3214C25.2107 34.3214 26.1429 33.3893 26.1429 32.25L32.3571 28.8321C32.6679 29.0393 32.9786 29.1429 33.3929 29.1429C33.6 29.1429 33.8071 29.1429 34.0143 29.0393L41.6786 35.9786C41.6786 36.0821 41.6786 36.2893 41.6786 36.3929C41.6786 37.5321 42.6107 38.4643 43.75 38.4643C44.8893 38.4643 45.8214 37.5321 45.8214 36.3929C45.8214 36.1857 45.8214 36.0821 45.7179 35.875L52.5536 29.0393C52.7607 29.1429 52.8643 29.1429 53.0714 29.1429C54.2107 29.1429 55.1429 28.2107 55.1429 27.0714C55.1429 25.9321 54.2107 25 53.0714 25ZM24.0714 36.3929V51.9286C24.0714 53.0679 25.0036 54 26.1429 54H30.2857C31.425 54 32.3571 53.0679 32.3571 51.9286V31.2143L28.0071 33.5964C27.3857 35.2536 25.8321 36.3929 24.0714 36.3929ZM39.6071 36.9107L34.4286 32.25V51.9286C34.4286 53.0679 35.3607 54 36.5 54H40.6429C41.7821 54 42.7143 53.0679 42.7143 51.9286V40.4321C41.0571 39.9143 39.8143 38.5679 39.6071 36.9107ZM44.7857 40.4321V51.9286C44.7857 53.0679 45.7179 54 46.8571 54H51C52.1393 54 53.0714 53.0679 53.0714 51.9286V31.4214L47.8929 36.6C47.7893 38.4643 46.4429 39.9143 44.7857 40.4321Z" fill="white"/>
</g>
<defs>
<clipPath id="clip0_1393_903">
<rect width="33.1429" height="29" fill="white" transform="translate(22 25)"/>
</clipPath>
</defs>
</svg>
