<svg width="78" height="78" viewBox="0 0 78 78" fill="none" xmlns="http://www.w3.org/2000/svg">
<circle cx="39" cy="39" r="39" fill="#FCAA0B"/>
<path fill-rule="evenodd" clip-rule="evenodd" d="M26.1691 32.2358L20.4429 37.8769C19.8524 38.4586 19.8524 39.4019 20.4429 39.9836L26.1691 45.6247C33.2554 52.6057 44.7446 52.6057 51.831 45.6247L57.5571 39.9836C58.1476 39.4019 58.1476 38.4586 57.5571 37.8769L51.831 32.2358C44.7446 25.2547 33.2554 25.2547 26.1691 32.2358ZM34.4321 38.9302C34.4321 36.462 36.4631 34.4612 38.9685 34.4612C41.474 34.4612 43.505 36.462 43.505 38.9302C43.505 41.3985 41.474 43.3993 38.9685 43.3993C36.4631 43.3993 34.4321 41.3985 34.4321 38.9302ZM38.9685 31.4819C34.7929 31.4819 31.4078 34.8166 31.4078 38.9302C31.4078 43.0438 34.7929 46.3786 38.9685 46.3786C43.1442 46.3786 46.5292 43.0438 46.5292 38.9302C46.5292 34.8166 43.1442 31.4819 38.9685 31.4819Z" fill="white"/>
<circle cx="39.0001" cy="38.9846" r="5.35897" fill="white"/>
</svg>
