<svg width="78" height="78" viewBox="0 0 78 78" fill="none" xmlns="http://www.w3.org/2000/svg">
<circle cx="39" cy="39" r="39" fill="#FCAA0B"/>
<path d="M27.0004 50.245C26.9944 50.6047 27.0602 50.9619 27.1937 51.2959C27.3273 51.6299 27.526 51.934 27.7783 52.1904C28.0305 52.4469 28.3313 52.6505 28.6631 52.7895C28.9949 52.9285 29.351 53.0001 29.7108 53H49.5869C50.3057 53 50.9951 52.7144 51.5034 52.2061C52.0117 51.6979 52.2973 51.0085 52.2973 50.2896V34.8862H27.0004V50.245ZM49.5758 27.6585H46.8765V24.9481C46.8765 24.7085 46.7813 24.4787 46.6119 24.3092C46.4425 24.1398 46.2127 24.0446 45.9731 24.0446H44.1661C43.9265 24.0446 43.6967 24.1398 43.5273 24.3092C43.3579 24.4787 43.2627 24.7085 43.2627 24.9481V27.6585H36.035V24.9481C36.0472 24.7102 35.965 24.4772 35.8062 24.2996C35.6475 24.1221 35.425 24.0144 35.1873 24H33.3246C33.085 24 32.8552 24.0952 32.6858 24.2646C32.5163 24.434 32.4211 24.6638 32.4211 24.9035V27.6138H29.7108C28.9919 27.6138 28.3025 27.8994 27.7942 28.4077C27.2859 28.916 27.0004 29.6054 27.0004 30.3242V33.0346H52.2973V30.3688C52.2973 30.0129 52.2272 29.6605 52.091 29.3316C51.9548 29.0028 51.7551 28.704 51.5034 28.4523C51.2518 28.2006 50.953 28.001 50.6241 27.8648C50.2953 27.7286 49.9428 27.6585 49.5869 27.6585H49.5758Z" fill="white"/>
</svg>
