<svg width="78" height="78" viewBox="0 0 78 78" fill="none" xmlns="http://www.w3.org/2000/svg">
<circle cx="39" cy="39" r="39" fill="#FCAA0B"/>
<path d="M41.7197 53.4862C41.3997 54.68 40.2428 55 39.0121 55C37.7813 55 36.6244 54.7292 36.3044 53.5354C35.6384 50.8226 35.2264 48.0538 35.0736 45.2646C35.0736 43.0739 37.0182 42.5447 39.0613 42.5447C41.1044 42.5447 43.049 43.0739 43.049 45.2646C42.8943 48.0536 42.4823 50.8223 41.8182 53.5354L41.7197 53.4862ZM34.8275 41.0308C33.9783 40.1994 33.396 39.1339 33.1549 37.9702C32.9138 36.8065 33.0248 35.5973 33.4738 34.497C33.9228 33.3966 34.6894 32.455 35.6758 31.7921C36.6621 31.1292 37.8236 30.7752 39.0121 30.7752C40.2005 30.7752 41.362 31.1292 42.3483 31.7921C43.3347 32.455 44.1013 33.3966 44.5503 34.497C44.9993 35.5973 45.1103 36.8065 44.8692 37.9702C44.6281 39.1339 44.0458 40.1994 43.1967 41.0308C43.1553 41.0655 43.122 41.1088 43.0992 41.1577C43.0763 41.2066 43.0645 41.2599 43.0645 41.3139C43.0645 41.3679 43.0763 41.4212 43.0992 41.4701C43.122 41.519 43.1553 41.5623 43.1967 41.597C43.7612 42.0113 44.2172 42.556 44.5259 43.1847C44.5491 43.2378 44.5849 43.2845 44.6302 43.3208C44.6755 43.357 44.7289 43.3816 44.7859 43.3925C44.8429 43.4034 44.9017 43.4003 44.9571 43.3834C45.0126 43.3665 45.0631 43.3363 45.1043 43.2954C46.4122 42.0628 47.3197 40.4658 47.7094 38.7114C48.099 36.957 47.9528 35.126 47.2897 33.4556C46.6266 31.7852 45.4772 30.3525 43.9903 29.343C42.5034 28.3335 40.7477 27.7938 38.9505 27.7938C37.1533 27.7938 35.3976 28.3335 33.9107 29.343C32.4239 30.3525 31.2744 31.7852 30.6113 33.4556C29.9482 35.126 29.802 36.957 30.1917 38.7114C30.5813 40.4658 31.4888 42.0628 32.7967 43.2954C32.8379 43.3363 32.8884 43.3665 32.9439 43.3834C32.9994 43.4003 33.0581 43.4034 33.1151 43.3925C33.1721 43.3816 33.2255 43.357 33.2709 43.3208C33.3162 43.2845 33.352 43.2378 33.3751 43.1847C33.6838 42.556 34.1398 42.0113 34.7044 41.597C34.7458 41.5623 34.779 41.519 34.8019 41.4701C34.8247 41.4212 34.8365 41.3679 34.8365 41.3139C34.8365 41.2599 34.8247 41.2066 34.8019 41.1577C34.779 41.1088 34.7458 41.0655 34.7044 41.0308H34.8275ZM39.0121 23.0001C35.8496 22.9876 32.7767 24.0495 30.2967 26.0118C27.8166 27.9741 26.0766 30.7205 25.3615 33.801C24.6464 36.8816 24.9987 40.1137 26.3607 42.9678C27.7227 45.8219 30.0137 48.1289 32.8582 49.5108C32.9196 49.5371 32.9868 49.5468 33.0532 49.5389C33.1195 49.5311 33.1826 49.506 33.2361 49.4661C33.2897 49.4262 33.3319 49.373 33.3584 49.3117C33.385 49.2505 33.395 49.1833 33.3875 49.1169C33.2398 48.1446 33.1167 47.1846 33.0428 46.3477C33.0405 46.2912 33.0248 46.2361 32.997 46.1869C32.9691 46.1377 32.93 46.0958 32.8828 46.0646C30.9257 44.7516 29.4442 42.8423 28.6584 40.6203C27.8726 38.3983 27.8245 35.9821 28.5211 33.7306C29.2178 31.479 30.622 29.5122 32.5253 28.1223C34.4287 26.7323 36.7296 25.9933 39.0863 26.015C41.443 26.0366 43.7299 26.8179 45.6074 28.2427C47.4848 29.6674 48.8526 31.6597 49.5077 33.9237C50.1628 36.1877 50.0702 38.6026 49.2436 40.8097C48.4171 43.0169 46.9007 44.8986 44.9197 46.1754C44.9197 47.0493 44.7228 48.0708 44.5628 49.1169C44.5553 49.1833 44.5653 49.2505 44.5918 49.3117C44.6184 49.373 44.6605 49.4262 44.7141 49.4661C44.7677 49.506 44.8308 49.5311 44.8971 49.5389C44.9634 49.5468 45.0306 49.5371 45.092 49.5108C47.9308 48.1316 50.2184 45.831 51.5814 42.9844C52.9444 40.1378 53.3024 36.9133 52.5969 33.8371C51.8914 30.7609 50.1641 28.0146 47.6968 26.0464C45.2296 24.0782 42.1681 23.0044 39.0121 23.0001ZM39.0121 32.9693C38.2234 32.9693 37.4524 33.2032 36.7966 33.6414C36.1408 34.0795 35.6297 34.7023 35.3279 35.431C35.0261 36.1596 34.9471 36.9614 35.101 37.7349C35.2549 38.5085 35.6347 39.219 36.1923 39.7767C36.75 40.3344 37.4606 40.7142 38.2341 40.868C39.0076 41.0219 39.8094 40.9429 40.5381 40.6411C41.2667 40.3393 41.8895 39.8282 42.3277 39.1724C42.7659 38.5167 42.9997 37.7457 42.9997 36.957C42.9868 35.9079 42.5609 34.9063 41.8145 34.169C41.0681 33.4318 40.0612 33.0185 39.0121 33.0185V32.9693Z" fill="white"/>
</svg>
