<svg width="78" height="78" viewBox="0 0 78 78" fill="none" xmlns="http://www.w3.org/2000/svg">
<circle cx="39" cy="39" r="39" fill="#FCAA0B"/>
<g clip-path="url(#clip0_0_1)">
<path d="M39.7268 46.7778C39.5191 46.7778 39.5191 46.9852 39.3115 46.7778H37.235C37.0273 46.7778 36.8197 46.7778 36.8197 46.7778C36.8197 46.7778 35.3661 46.1556 34.7432 45.7408H20L21.6612 49.0593C21.8689 49.6815 22.4918 49.8889 22.9071 49.8889H41.388V45.9482C40.765 46.1556 39.7268 46.5704 39.7268 46.7778Z" fill="white"/>
<path d="M45.5411 30.1852H52.8088V26.4519C52.8088 25.6222 52.1859 25 51.3553 25H25.1913C24.3607 25 23.7378 25.6222 23.7378 26.4519V43.6667H34.9509C35.1586 43.6667 35.3662 43.6667 37.4427 44.7037H39.1039C39.7269 44.2889 40.5575 43.8741 41.3881 43.6667V34.3333C41.3881 32.0519 43.2569 30.1852 45.5411 30.1852Z" fill="white"/>
<path d="M55.9234 32.2592H45.5409C44.295 32.2592 43.4644 33.0889 43.4644 34.3333V50.9259C43.4644 52.1704 44.295 53 45.5409 53H55.9234C57.1693 53 57.9999 52.1704 57.9999 50.9259V34.3333C57.9999 33.0889 57.1693 32.2592 55.9234 32.2592ZM50.7321 50.9259C49.9015 50.9259 49.4862 50.3037 49.4862 49.6815C49.4862 48.8518 50.1092 48.437 50.7321 48.437C51.5627 48.437 51.978 49.0592 51.978 49.6815C52.1857 50.3037 51.5627 50.9259 50.7321 50.9259Z" fill="white"/>
</g>
<defs>
<clipPath id="clip0_0_1">
<rect width="38" height="28" fill="white" transform="translate(20 25)"/>
</clipPath>
</defs>
</svg>
