<svg width="78" height="78" viewBox="0 0 78 78" fill="none" xmlns="http://www.w3.org/2000/svg">
<circle cx="39" cy="39" r="39" fill="#FCAA0B"/>
<path d="M59.0512 44.4945C57.9981 39.9581 53.9479 36.5559 49.0875 36.5559C47.8724 36.5559 46.7384 36.7989 45.6853 37.1229C45.2803 38.9051 44.2272 40.7682 42.8501 41.9833C45.4423 42.7123 47.7104 44.3324 49.2495 46.4386H57.4311C58.4842 46.4386 59.2132 45.4665 59.0512 44.4945Z" fill="white"/>
<path d="M48.7725 35.1358C51.3647 35.1358 53.4709 31.4905 53.4709 28.8983C53.4709 26.3062 51.3647 24.2 48.7725 24.2C46.1804 24.2 44.0742 26.3062 44.0742 28.8983C44.0742 31.4905 46.1804 35.1358 48.7725 35.1358Z" fill="white"/>
<path d="M35.7447 41.9022C34.2866 40.6871 33.3145 38.824 32.9095 37.0419C31.8564 36.6369 30.7223 36.4749 29.5072 36.4749C24.6469 36.4749 20.5966 39.8771 19.5435 44.4134C19.3005 45.3855 20.1106 46.3575 21.0826 46.3575H29.3452C30.8843 44.2514 33.1525 42.6313 35.7447 41.9022Z" fill="white"/>
<path d="M29.8175 35.1358C32.4096 35.1358 34.5158 31.4905 34.5158 28.8983C34.5158 26.3062 32.4096 24.2 29.8175 24.2C27.2253 24.2 25.1191 26.3062 25.1191 28.8983C25.1191 31.4905 27.2253 35.1358 29.8175 35.1358Z" fill="white"/>
<path d="M39.2948 43.4C34.4344 43.4 30.3842 46.8023 29.3311 51.3386C29.0881 52.3106 29.8171 53.2827 30.8702 53.2827H47.6384C48.6914 53.2827 49.4205 52.3106 49.1775 51.3386C48.2054 46.8023 44.1551 43.4 39.2948 43.4Z" fill="white"/>
<path d="M39.295 41.5782C41.8872 41.5782 43.9933 37.933 43.9933 35.3408C43.9933 32.7486 41.8872 30.6425 39.295 30.6425C36.7028 30.6425 34.5967 32.7486 34.5967 35.3408C34.5967 37.933 36.7028 41.5782 39.295 41.5782Z" fill="white"/>
</svg>
