<svg width="78" height="78" viewBox="0 0 78 78" fill="none" xmlns="http://www.w3.org/2000/svg">
<circle cx="39" cy="39" r="39" fill="#FCAA0B"/>
<path d="M49.0445 30.1306C47.2327 26.4677 43.7633 24.1928 39.7157 24C39.5229 24 39.3302 24 39.1374 24C38.9447 24 38.7519 24 38.5592 24C34.5116 24.1928 31.0422 26.4677 29.2304 30.1306C27.3415 33.9092 27.6499 38.2276 30.0013 41.6978L38.3131 53.7998C38.7104 54.3783 39.5644 54.3783 39.9617 53.7998L48.2735 41.6978C50.6635 38.2276 50.9334 33.9092 49.0445 30.1306ZM39.1374 44.0498C34.2417 44.0498 30.2712 40.0784 30.2712 35.1816C30.2712 30.2848 34.2417 26.3134 39.1374 26.3134C44.0331 26.3134 48.0037 30.2848 48.0037 35.1816C48.0037 40.0784 44.0331 44.0498 39.1374 44.0498ZM39.1374 28.6269C35.5138 28.6269 32.5841 31.5572 32.5841 35.1816C32.5841 38.806 35.5138 41.7363 39.1374 41.7363C42.761 41.7363 45.6907 38.806 45.6907 35.1816C45.6907 31.5572 42.761 28.6269 39.1374 28.6269Z" fill="white"/>
</svg>
